<svg xmlns="http://www.w3.org/2000/svg" xmlns:xlink="http://www.w3.org/1999/xlink" version="1.1" width="52" height="96" style="enable-background:new 0 0 96.124 96.123;" xml:space="preserve"><rect id="backgroundrect" width="100%" height="100%" x="0" y="0" fill="none" stroke="none" class="" style=""/>
















<g class="currentLayer" style=""><title>Layer 1</title><g id="svg_1" class="">
	<path d="M50.043002022743224,0.020000000000000007 L37.57800202274323,0 C23.574002022743223,0 14.524002022743225,9.285 14.524002022743225,23.656 v10.907 H1.9910020227432241 c-1.083,0 -1.96,0.8780000000000002 -1.96,1.961 v15.803 c0,1.083 0.8780000000000002,1.96 1.96,1.96 h12.533 v39.876 c0,1.083 0.8770000000000002,1.96 1.96,1.96 h16.352 c1.083,0 1.96,-0.8780000000000002 1.96,-1.96 V54.287 h14.654 c1.083,0 1.96,-0.8770000000000002 1.96,-1.96 l0.006000000000000004,-15.803 c0,-0.52 -0.20700000000000005,-1.018 -0.5740000000000002,-1.3860000000000001 c-0.3670000000000001,-0.3680000000000001 -0.8670000000000002,-0.5750000000000002 -1.387,-0.5750000000000002 H34.796002022743224 v-9.246 c0,-4.444 1.059,-6.7 6.848,-6.7 l8.397,-0.003000000000000002 c1.082,0 1.959,-0.8780000000000002 1.959,-1.96 V1.98 C52.00000202274323,0.8990000000000002 51.12400202274323,0.022000000000000013 50.043002022743224,0.020000000000000007 z" fill="#FFFFFF" id="svg_2"/>
</g><g id="svg_3" class="">
</g><g id="svg_4" class="">
</g><g id="svg_5" class="">
</g><g id="svg_6" class="">
</g><g id="svg_7" class="">
</g><g id="svg_8" class="">
</g><g id="svg_9" class="">
</g><g id="svg_10" class="">
</g><g id="svg_11" class="">
</g><g id="svg_12" class="">
</g><g id="svg_13" class="">
</g><g id="svg_14" class="">
</g><g id="svg_15" class="">
</g><g id="svg_16" class="">
</g><g id="svg_17" class="">
</g></g></svg>