<?xml version="1.0" encoding="iso-8859-1"?>
<!-- Generator: Adobe Illustrator 19.0.0, SVG Export Plug-In . SVG Version: 6.00 Build 0)  -->
<svg version="1.1" id="Capa_1" xmlns="http://www.w3.org/2000/svg" xmlns:xlink="http://www.w3.org/1999/xlink" x="0px" y="0px"
	 viewBox="0 0 511.999 511.999" style="enable-background:new 0 0 511.999 511.999;" xml:space="preserve">
<g>
	<g>
		<path d="M323.438,274.008l22.299-49.202H312.8v0l-16.547,36.511c-12.669-4.187-26.199-6.461-40.254-6.461
			c-14.054,0-27.584,2.274-40.254,6.461l-16.547-36.511H166.26l22.299,49.202c-36.657,22.676-61.133,63.24-61.133,109.419
			c0,70.895,57.678,128.572,128.572,128.572S384.57,454.321,384.57,383.427C384.57,337.248,360.094,296.684,323.438,274.008z
			 M256,451.997c-37.81,0-68.569-30.76-68.569-68.569s30.76-68.569,68.569-68.569s68.569,30.76,68.569,68.569
			S293.809,451.997,256,451.997z"/>
	</g>
</g>
<g>
	<g>
		<polygon points="120.885,0 120.885,30.001 150.923,30.001 150.923,194.805 210.974,194.805 210.974,30.001 240.975,30.001 
			240.975,194.805 271.024,194.805 271.024,30.001 301.026,30.001 301.026,194.805 361.076,194.805 361.076,30.001 391.114,30.001 
			391.114,0 		"/>
	</g>
</g>
<g>
	<g>
		<path d="M256,344.859c-21.267,0-38.568,17.302-38.568,38.568c0,21.266,17.302,38.568,38.568,38.568s38.568-17.302,38.568-38.568
			C294.567,362.161,277.266,344.859,256,344.859z"/>
	</g>
</g>
<g>
</g>
<g>
</g>
<g>
</g>
<g>
</g>
<g>
</g>
<g>
</g>
<g>
</g>
<g>
</g>
<g>
</g>
<g>
</g>
<g>
</g>
<g>
</g>
<g>
</g>
<g>
</g>
<g>
</g>
</svg>
