<svg xmlns="http://www.w3.org/2000/svg" xmlns:xlink="http://www.w3.org/1999/xlink" version="1.1" style="enable-background:new 0 0 612 612;" xml:space="preserve" width="612" height="497"><rect id="backgroundrect" width="100%" height="100%" x="0" y="0" fill="none" stroke="none" class="" style=""/>
















<g class="currentLayer" style=""><title>Layer 1</title><g id="svg_1" class="">
	<g id="svg_2">
		<path d="M611.9994964599609,58.81700573730468 c-22.525,9.981 -46.694,16.75 -72.088,19.772 c25.929,-15.527 45.777,-40.155 55.184,-69.411 c-24.322,14.379 -51.169,24.82 -79.775,30.48 c-22.907,-24.437 -55.49,-39.658 -91.63,-39.658 c-69.334,0 -125.551,56.217 -125.551,125.513 c0,9.828 1.109,19.427 3.251,28.606 C197.06449645996094,148.87900573730468 104.55549645996093,98.89600573730468 42.640496459960936,22.945005737304683 c-10.823,18.51 -16.98,40.078 -16.98,63.101 c0,43.559 22.181,81.993 55.835,104.479 c-20.575,-0.6880000000000007 -39.926,-6.348 -56.867,-15.756 v1.568 c0,60.806 43.291,111.554 100.693,123.104 c-10.517,2.83 -21.607,4.398 -33.08,4.398 c-8.107,0 -15.947,-0.803 -23.634,-2.333 c15.985,49.907 62.336,86.199 117.253,87.194 c-42.947,33.654 -97.099,53.655 -155.916,53.655 c-10.134,0 -20.116,-0.6120000000000004 -29.944,-1.721 c55.567,35.681 121.536,56.485 192.438,56.485 c230.948,0 357.188,-191.291 357.188,-357.188 l-0.4210000000000002,-16.253 C573.8714964599609,106.0850057373047 595.210496459961,83.98100573730468 611.9994964599609,58.81700573730468 z" fill="#FFFFFF" id="svg_3"/>
	</g>
</g><g id="svg_4" class="">
</g><g id="svg_5" class="">
</g><g id="svg_6" class="">
</g><g id="svg_7" class="">
</g><g id="svg_8" class="">
</g><g id="svg_9" class="">
</g><g id="svg_10" class="">
</g><g id="svg_11" class="">
</g><g id="svg_12" class="">
</g><g id="svg_13" class="">
</g><g id="svg_14" class="">
</g><g id="svg_15" class="">
</g><g id="svg_16" class="">
</g><g id="svg_17" class="">
</g><g id="svg_18" class="">
</g></g></svg>