<svg xmlns="http://www.w3.org/2000/svg" xmlns:xlink="http://www.w3.org/1999/xlink" version="1.1" style="enable-background:new 0 0 310 310;" xml:space="preserve" width="311" height="218"><rect id="backgroundrect" width="100%" height="100%" x="0" y="0" fill="none" stroke="none" class="" style=""/>
















<g class="currentLayer" style=""><title>Layer 1</title><g id="XMLID_822_" class="">
	<path id="XMLID_823_" d="M298.4967039782795,18.73844493297186 c-11.196241111634762,-13.309419058710064 -31.867764021945238,-18.738445356451823 -71.34577021503381,-18.738445356451823 H83.84605143850139 c-40.38150983239209,0 -61.40322795173493,5.779221506774119 -72.5574456382858,19.94912022196371 C0.4135437231505033,33.76482107368061 0.4135437231505033,54.12116829586196 0.4135437231505033,82.29487314138579 v53.69893335302288 c0,54.581425279784455 12.903192616232523,82.29387300712567 83.43250771535088,82.29387300712567 h143.3058828824844 c34.23508363500403,0 53.20565838715731,-4.790670459562757 65.47849962713155,-16.53621777050829 C305.2164497607406,189.7067476557929 310.58644315181687,170.04078527427532 310.58644315181687,135.9938064944087 v-53.69893335302288 C310.58644315181687,52.58331104933983 309.7449740923992,32.10689689834739 298.4967039782795,18.73844493297186 zM199.5455457140944,116.55797239311241 l-65.0742743001342,34.009958143483225 c-1.4548109540944547,0.760423882470281 -3.0456977608414855,1.1376341504851408 -4.634583452108332,1.1376341504851408 c-1.7990028166862655,0 -3.594003402412161,-0.4842699462047575 -5.183889651419098,-1.4468064921737156 c-2.9936687583566766,-1.8140111827876524 -4.821687749505624,-5.0588199339075395 -4.821687749505624,-8.558770908751008 v-67.80179469962629 c0,-3.4939476284029127 1.823016202448485,-6.735754706302523 4.810681614364606,-8.550766446830266 c2.9886659696562146,-1.8150117405277442 6.705737974099749,-1.9390809002992113 9.806466410646319,-0.328182938750332 l65.0742743001342,33.79083599840297 c3.310845561965991,1.7189581974788672 5.390004545878148,5.136863437634752 5.395007334578611,8.865942134959399 C204.9215424516113,111.40810170485645 202.85138848735994,114.83100973371279 199.5455457140944,116.55797239311241 z" fill="#FFFFFF" class=""/>
</g><g id="svg_1" class="">
</g><g id="svg_2" class="">
</g><g id="svg_3" class="">
</g><g id="svg_4" class="">
</g><g id="svg_5" class="">
</g><g id="svg_6" class="">
</g><g id="svg_7" class="">
</g><g id="svg_8" class="">
</g><g id="svg_9" class="">
</g><g id="svg_10" class="">
</g><g id="svg_11" class="">
</g><g id="svg_12" class="">
</g><g id="svg_13" class="">
</g><g id="svg_14" class="">
</g><g id="svg_15" class="">
</g></g></svg>